# xmcd CD database file
# Copyright (C) 1993-1998 Ti Kan
#
# Track frame offsets:
#  183
#  17390
#  33703
#  56140
#  68300
#  81538
#  101495
#  121408
#  140123
#  156378
#  172555
#  188905
#
# Disc length: 2719 seconds
#
# Revision: 1
# Processed by: cddbd v1.4b41PL1 Copyright (c) Steve Scherf et al.
# Submitted via: CDWizzard Release:4.35
#
DISCID=9d0a9d0c
DTITLE=Omar and the Howlers - World Wide Open
DYEAR=1900
DGENRE=
TTITLE0=Mystery Walk
TTITLE1=Hey Joe
TTITLE2=Sugar Ditch
TTITLE3=Mail Order Mojo
TTITLE4=Got My Heart Set On You
TTITLE5=Low Down Dirty Blues
TTITLE6=Highway 49
TTITLE7=Fire In The House
TTITLE8=Red River
TTITLE9=No More Cane
TTITLE10=Enough Is Enough
TTITLE11=World of Trouble
EXTD=
EXTT0=
EXTT1=
EXTT2=
EXTT3=
EXTT4=
EXTT5=
EXTT6=
EXTT7=
EXTT8=
EXTT9=
EXTT10=
EXTT11=
PLAYORDER=
